<svg version="1.1" id="Layer_1" xmlns="http://www.w3.org/2000/svg" xmlns:xlink="http://www.w3.org/1999/xlink" x="0px" y="0px"
	 width="100%" viewBox="0 0 500 500" enable-background="new 0 0 500 500" xml:space="preserve">
<path fill="#FFFFFF" opacity="1.000000" stroke="none" 
	d="
M328.000000,501.000000 
	C218.666687,501.000000 109.833382,501.000000 1.000058,501.000000 
	C1.000039,334.333405 1.000039,167.666794 1.000019,1.000148 
	C167.666565,1.000099 334.333130,1.000099 500.999756,1.000049 
	C500.999847,167.666519 500.999847,334.333038 500.999939,500.999786 
	C443.500000,501.000000 386.000000,501.000000 328.000000,501.000000 
M296.935974,215.500000 
	C296.935730,232.498520 297.133759,249.500381 296.849121,266.494141 
	C296.712891,274.626190 296.116150,282.809448 294.938385,290.853943 
	C291.661133,313.238495 280.038879,326.435333 259.950104,329.456116 
	C236.594940,332.968079 217.102844,323.871338 210.665237,298.967010 
	C208.560516,290.824738 207.199036,282.246735 207.145844,273.857513 
	C206.810898,221.030319 206.940323,168.200150 206.916458,115.370964 
	C206.915573,113.437042 206.916321,111.503113 206.916321,109.554016 
	C173.365982,109.554016 140.497498,109.554016 107.479416,109.554016 
	C107.401009,111.277847 107.289108,112.592720 107.288925,113.907616 
	C107.281487,165.737015 107.038170,217.568390 107.457275,269.394440 
	C107.563057,282.473816 108.705650,295.750183 111.236206,308.567932 
	C120.627457,356.136444 148.460922,388.197937 194.958710,402.504608 
	C233.169754,414.261536 271.914703,413.873627 309.992706,401.615356 
	C343.355347,390.875061 367.646301,369.260437 382.075317,336.960663 
	C391.791840,315.209869 394.509552,292.158325 394.610474,268.730774 
	C394.831543,217.402298 394.683380,166.072189 394.667847,114.742760 
	C394.667297,112.974998 394.472534,111.207314 394.366058,109.401947 
	C361.699982,109.401947 329.597748,109.401947 296.935944,109.401947 
	C296.935944,144.609360 296.935944,179.554672 296.935974,215.500000 
z"/>
<path fill="#5372FF" opacity="1.000000" stroke="none" 
	d="
M296.935974,215.000000 
	C296.935944,179.554672 296.935944,144.609360 296.935944,109.401947 
	C329.597748,109.401947 361.699982,109.401947 394.366058,109.401947 
	C394.472534,111.207314 394.667297,112.974998 394.667847,114.742760 
	C394.683380,166.072189 394.831543,217.402298 394.610474,268.730774 
	C394.509552,292.158325 391.791840,315.209869 382.075317,336.960663 
	C367.646301,369.260437 343.355347,390.875061 309.992706,401.615356 
	C271.914703,413.873627 233.169754,414.261536 194.958710,402.504608 
	C148.460922,388.197937 120.627457,356.136444 111.236206,308.567932 
	C108.705650,295.750183 107.563057,282.473816 107.457275,269.394440 
	C107.038170,217.568390 107.281487,165.737015 107.288925,113.907616 
	C107.289108,112.592720 107.401009,111.277847 107.479416,109.554016 
	C140.497498,109.554016 173.365982,109.554016 206.916321,109.554016 
	C206.916321,111.503113 206.915573,113.437042 206.916458,115.370964 
	C206.940323,168.200150 206.810898,221.030319 207.145844,273.857513 
	C207.199036,282.246735 208.560516,290.824738 210.665237,298.967010 
	C217.102844,323.871338 236.594940,332.968079 259.950104,329.456116 
	C280.038879,326.435333 291.661133,313.238495 294.938385,290.853943 
	C296.116150,282.809448 296.712891,274.626190 296.849121,266.494141 
	C297.133759,249.500381 296.935730,232.498520 296.935974,215.000000 
z"/>
</svg>